<svg width="25" height="24" viewBox="0 0 25 24" fill="none" xmlns="http://www.w3.org/2000/svg">
<path d="M19.7115 5.01379C20.7072 5.75538 21.4182 6.2857 21.9489 6.75163C22.4713 7.21025 22.7766 7.57113 22.9801 7.95362C23.3966 8.73625 23.4167 9.63018 23.4167 11.9431V13.683C23.4167 16.0608 23.4145 17.7563 23.2122 19.044C23.0154 20.2967 22.6436 21.0588 21.9705 21.6348C21.2806 22.2252 20.3395 22.5635 18.8151 22.7389C17.2795 22.9155 15.2681 22.9167 12.5 22.9167C9.73197 22.9167 7.7206 22.9155 6.18501 22.7389C4.66055 22.5635 3.71948 22.2252 3.02955 21.6348C2.35648 21.0588 1.98466 20.2967 1.78785 19.044C1.58553 17.7563 1.58337 16.0608 1.58337 13.683L1.58337 11.9431C1.58337 9.63017 1.60351 8.73625 2.01995 7.95362C2.22348 7.57113 2.52879 7.21025 3.05116 6.75163C3.58185 6.2857 4.29292 5.75538 5.28859 5.01379C7.12854 3.64337 8.45625 2.65602 9.59384 2.00374C10.712 1.3626 11.5839 1.08337 12.5 1.08337C13.4162 1.08337 14.2881 1.3626 15.4062 2.00374C16.5438 2.65602 17.8715 3.64337 19.7115 5.01379Z" stroke="#5854A3" stroke-width="1.5"/>
<rect x="16.4167" y="17.0834" width="7.83333" height="7.83333" rx="3.91667" transform="rotate(-180 16.4167 17.0834)" stroke="#5854A3" stroke-width="1.5"/>
</svg>
