<svg width="24" height="24" viewBox="0 0 24 24" fill="none" xmlns="http://www.w3.org/2000/svg">
<path d="M4.15204 9.0317C6.12176 5.9357 8.70004 4.2857 12.2143 4.2857C15.5983 4.2857 18.5289 5.7437 19.9715 7.71427H16.2858C16.0584 7.71427 15.8404 7.80457 15.6797 7.96532C15.5189 8.12606 15.4286 8.34408 15.4286 8.57141C15.4286 8.79874 15.5189 9.01676 15.6797 9.1775C15.8404 9.33825 16.0584 9.42855 16.2858 9.42855H21.4286C21.6559 9.42855 21.874 9.33825 22.0347 9.1775C22.1955 9.01676 22.2858 8.79874 22.2858 8.57141V3.42855C22.2858 3.20123 22.1955 2.98321 22.0347 2.82246C21.874 2.66172 21.6559 2.57141 21.4286 2.57141C21.2013 2.57141 20.9833 2.66172 20.8225 2.82246C20.6618 2.98321 20.5715 3.20123 20.5715 3.42855V5.78313C18.6198 3.80741 15.5272 2.57141 12.2143 2.57141C8.01433 2.57141 4.9329 4.61141 2.70519 8.11113C2.58311 8.30299 2.54225 8.53549 2.5916 8.75748C2.64095 8.97947 2.77646 9.17276 2.96833 9.29484C3.16019 9.41691 3.3927 9.45777 3.61468 9.40842C3.83667 9.35907 4.02997 9.22356 4.15204 9.0317ZM15.6326 11.1428C14.2106 11.1428 13.1812 11.7771 12.5555 12.8117C11.9692 13.7828 11.7755 15.0377 11.7755 16.2857C11.7755 17.5337 11.9692 18.7886 12.5555 19.7597C13.1812 20.7943 14.2115 21.4286 15.6326 21.4286C17.0555 21.4286 18.084 20.7943 18.7098 19.7597C19.2969 18.7886 19.4898 17.5337 19.4898 16.2857C19.4898 15.0377 19.2969 13.7828 18.7098 12.8117C18.084 11.7771 17.0555 11.1428 15.6326 11.1428ZM13.4898 16.2857C13.4898 15.1671 13.6715 14.2791 14.0229 13.6988C14.3349 13.1828 14.8046 12.8571 15.6326 12.8571C16.4606 12.8571 16.9312 13.1828 17.2432 13.6988C17.5946 14.2791 17.7755 15.1671 17.7755 16.2857C17.7755 17.4043 17.5938 18.2923 17.2432 18.8726C16.9312 19.3886 16.4606 19.7143 15.6326 19.7143C14.8046 19.7143 14.3349 19.3886 14.0229 18.8726C13.6715 18.2923 13.4898 17.4043 13.4898 16.2857ZM9.42861 12C9.42843 11.8128 9.36699 11.6308 9.25367 11.4819C9.14036 11.3329 8.98139 11.2251 8.80107 11.175C8.62074 11.1249 8.42895 11.1351 8.25501 11.2042C8.08106 11.2733 7.93452 11.3975 7.83776 11.5577L7.8369 11.5586L7.83176 11.5663C7.82747 11.5748 7.81804 11.5877 7.80604 11.6066C7.63056 11.8718 7.43966 12.1265 7.23433 12.3694C6.82804 12.8511 6.25462 13.4194 5.55947 13.836C5.36442 13.9529 5.22383 14.1426 5.16861 14.3632C5.1134 14.5838 5.14808 14.8174 5.26504 15.0124C5.382 15.2075 5.57166 15.3481 5.79228 15.4033C6.0129 15.4585 6.24642 15.4238 6.44147 15.3068C6.89729 15.03 7.32377 14.7074 7.71433 14.3443V20.5714C7.71433 20.7987 7.80464 21.0168 7.96538 21.1775C8.12613 21.3382 8.34414 21.4286 8.57147 21.4286C8.7988 21.4286 9.01682 21.3382 9.17756 21.1775C9.33831 21.0168 9.42861 20.7987 9.42861 20.5714V12Z" fill="#0D0E10"/>
</svg>
